<svg width="37" height="37" viewBox="0 0 37 37" fill="none" xmlns="http://www.w3.org/2000/svg">
<path d="M0 18.5C0 8.28273 8.28273 0 18.5 0C28.7173 0 37 8.28273 37 18.5C37 28.7173 28.7173 37 18.5 37C8.28273 37 0 28.7173 0 18.5Z" fill="#87A7CA" fill-opacity="0.1"/>
<path d="M26.7828 19.288L22.8175 21.3018L19.9978 18.5L22.8175 15.6982L26.7828 17.6245C27.4877 17.9747 27.4877 19.0254 26.7828 19.288Z" stroke="#1269B5" stroke-width="1.5" stroke-miterlimit="10" stroke-linecap="round" stroke-linejoin="round"/>
<path d="M22.8178 15.6982L19.9981 18.5L11.5389 26.9053L11.0102 27.168C10.3934 27.5182 9.68848 26.9929 9.68848 26.2925V10.7075C9.68848 10.007 10.3934 9.56926 11.0102 9.83193L22.8178 15.6982Z" stroke="#1269B5" stroke-width="1.5" stroke-miterlimit="10" stroke-linecap="round" stroke-linejoin="round"/>
<path d="M22.8177 21.3018L11.5388 26.9054L19.998 18.5L22.8177 21.3018Z" stroke="#1269B5" stroke-width="1.5" stroke-miterlimit="10" stroke-linecap="round" stroke-linejoin="round"/>
<path d="M19.998 18.5L11.5388 10.0946" stroke="#1269B5" stroke-width="1.5" stroke-miterlimit="10" stroke-linecap="round" stroke-linejoin="round"/>
</svg>
