<svg width="9" height="9" viewBox="0 0 9 9" fill="none" xmlns="http://www.w3.org/2000/svg">
<path d="M5.75492 5.2927L5.54615 5.51247C5.54615 5.51247 5.04996 6.03487 3.69559 4.60895C2.34122 3.18305 2.8374 2.66066 2.8374 2.66066L2.96886 2.52226C3.29271 2.18132 3.32324 1.63394 3.04069 1.23434L2.46274 0.416905C2.11304 -0.0776874 1.43731 -0.143023 1.0365 0.27896L0.317097 1.03636C0.118355 1.24559 -0.0148279 1.51683 0.00132376 1.81772C0.0426425 2.5875 0.371574 4.24371 2.20704 6.17613C4.15346 8.22534 5.97978 8.30679 6.72664 8.23309C6.96286 8.20976 7.16829 8.08239 7.33384 7.90808L7.98494 7.2226C8.42444 6.75991 8.30051 5.96667 7.73818 5.643L6.86253 5.13897C6.4933 4.92644 6.04349 4.98887 5.75492 5.2927Z" fill="white"/>
</svg>
