<svg width="10" height="10" viewBox="0 0 10 10" fill="none" xmlns="http://www.w3.org/2000/svg">
<path fill-rule="evenodd" clip-rule="evenodd" d="M4.875 9.75C7.56741 9.75 9.75 7.56741 9.75 4.875C9.75 2.18261 7.56741 0 4.875 0C2.18261 0 0 2.18261 0 4.875C0 7.56741 2.18261 9.75 4.875 9.75ZM5.41667 1.89583C5.41667 1.59668 5.17416 1.35417 4.875 1.35417C4.57584 1.35417 4.33333 1.59668 4.33333 1.89583V4.73958C4.33333 5.11355 4.63645 5.41667 5.01042 5.41667H6.77083C7.07 5.41667 7.3125 5.17416 7.3125 4.875C7.3125 4.57584 7.07 4.33333 6.77083 4.33333H5.41667V1.89583Z" fill="white"/>
</svg>
