<svg width="13" height="17" viewBox="0 0 13 17" fill="none" xmlns="http://www.w3.org/2000/svg">
<g clip-path="url(#clip0_846_114646)">
<path d="M6.5 0C3.13447 0 0.40625 2.72822 0.40625 6.09375C0.40625 7.53543 1.04152 8.80318 1.74459 9.90234L6.08563 16.0357C6.18084 16.1703 6.33547 16.25 6.5 16.25C6.66453 16.25 6.81916 16.1703 6.91437 16.0357L11.2554 9.90234C11.9272 8.99793 12.5938 7.53543 12.5938 6.09375C12.5938 2.72822 9.86553 0 6.5 0ZM6.5 9.64844C4.5368 9.64844 2.94531 8.05695 2.94531 6.09375C2.94531 4.13055 4.5368 2.53906 6.5 2.53906C8.4632 2.53906 10.0547 4.13055 10.0547 6.09375C10.0547 8.05695 8.4632 9.64844 6.5 9.64844Z" fill="currentColor"/>
<path d="M6.5 3.04688C4.81736 3.04688 3.45312 4.41111 3.45312 6.09375C3.45312 7.77639 4.81736 9.14062 6.5 9.14062C8.18264 9.14062 9.54688 7.77639 9.54688 6.09375C9.54688 4.41111 8.18264 3.04688 6.5 3.04688ZM6.5 8.63281C5.09768 8.63281 3.96094 7.49582 3.96094 6.09375C3.96094 4.69168 5.09768 3.55469 6.5 3.55469C7.90232 3.55469 9.03906 4.69168 9.03906 6.09375C9.03906 7.49582 7.90232 8.63281 6.5 8.63281Z" fill="currentColor"/>
</g>
<defs>
<clipPath id="clip0_846_114646">
<rect width="13" height="16.25" fill="white"/>
</clipPath>
</defs>
</svg>
