<svg width="16" height="16" viewBox="0 0 16 16" fill="none" xmlns="http://www.w3.org/2000/svg">
<path d="M7.66659 14C11.1644 14 13.9999 11.1645 13.9999 7.66666C13.9999 4.16886 11.1644 1.33333 7.66659 1.33333C4.16878 1.33333 1.33325 4.16886 1.33325 7.66666C1.33325 11.1645 4.16878 14 7.66659 14Z" stroke="#2D64AF" stroke-width="1.5" stroke-linecap="round" stroke-linejoin="round"/>
<path d="M14.1364 15.197C14.4293 15.4899 14.9042 15.4899 15.1971 15.197C15.49 14.9041 15.49 14.4292 15.1971 14.1363L14.1364 15.197ZM13.1971 12.1363L12.6667 11.606L11.6061 12.6667L12.1364 13.197L13.1971 12.1363ZM15.1971 14.1363L13.1971 12.1363L12.1364 13.197L14.1364 15.197L15.1971 14.1363Z" fill="#2D64AF"/>
</svg>
