<svg width="42" height="43" viewBox="0 0 42 43" fill="none" xmlns="http://www.w3.org/2000/svg">
<rect y="0.909668" width="42" height="42" rx="21" fill="url(#paint0_linear_3253_130442)"/>
<g clip-path="url(#clip0_3253_130442)">
<path d="M27.9175 13.9097H17.865C17.5712 13.9097 17.333 14.1479 17.333 14.4417V22.3771L18.397 21.3131V14.9736H27.3855V27.4804H26.7158V28.5444H27.9175C28.2113 28.5444 28.4495 28.3061 28.4495 28.0124V14.4417C28.4495 14.1479 28.2113 13.9097 27.9175 13.9097Z" fill="#2D64AF"/>
<path d="M17.4946 28.3927C17.5905 28.486 17.7206 28.5444 17.8648 28.5444H23.9367V27.4805H18.4069L17.4946 28.3927Z" fill="#2D64AF"/>
<path d="M26.9716 25.6471C26.9716 25.325 26.8755 25.027 26.7158 24.7732C26.61 24.6054 26.4745 24.4607 26.317 24.341C26.0409 24.1311 25.7001 24.0017 25.3263 24.0017C24.9525 24.0017 24.6117 24.1311 24.3355 24.341C24.1781 24.4607 24.0425 24.6054 23.9368 24.7732C23.7771 25.027 23.6809 25.325 23.6809 25.6471C23.6809 25.9689 23.7771 26.2671 23.9368 26.5207C24.0716 26.7347 24.2534 26.9129 24.4688 27.0454V29.7506C24.4688 29.816 24.5091 29.875 24.5698 29.8989C24.5885 29.9061 24.6083 29.9098 24.6278 29.9098C24.6714 29.9098 24.714 29.8919 24.7449 29.8586L25.2094 29.3563C25.2395 29.3237 25.2819 29.3053 25.3263 29.3053C25.3707 29.3053 25.4131 29.3237 25.4432 29.3563L25.9076 29.8586C25.9386 29.8919 25.9812 29.9098 26.0248 29.9098C26.0443 29.9098 26.064 29.9061 26.0827 29.8989C26.1435 29.875 26.1838 29.816 26.1838 29.7506V27.0454C26.3991 26.9129 26.581 26.7347 26.7158 26.5207C26.8755 26.2671 26.9716 25.9689 26.9716 25.6471ZM25.3263 24.9283C25.7232 24.9283 26.0451 25.2502 26.0451 25.6471C26.0451 26.044 25.7232 26.3658 25.3263 26.3658C24.9294 26.3658 24.6076 26.044 24.6076 25.6471C24.6076 25.2502 24.9294 24.9283 25.3263 24.9283Z" fill="#2D64AF"/>
<path d="M23.9727 22.1122C24.7084 22.0729 25.3855 21.6991 25.8107 21.0972L26.2581 20.4637C26.644 19.9177 26.5801 19.1734 26.1074 18.7009C26.0502 18.6435 25.9749 18.6149 25.9001 18.6149C25.8248 18.6149 25.75 18.6435 25.6926 18.7009L24.5271 19.866C24.4247 19.9683 24.2904 20.0198 24.1564 20.0198C24.022 20.0198 23.888 19.9683 23.7857 19.866L22.9326 19.0129C22.8339 18.9147 22.7788 18.7812 22.7788 18.6422C22.7788 18.503 22.8339 18.37 22.9323 18.2713L24.0976 17.106C24.2124 16.9915 24.2124 16.8057 24.0976 16.6912C23.8319 16.4252 23.4802 16.2888 23.1263 16.2888C22.8508 16.2888 22.5739 16.3714 22.3348 16.5402L21.7013 16.9878C21.0994 17.413 20.7259 18.09 20.6864 18.8259L20.611 20.2271L13.9568 26.8822C13.4154 27.4235 13.4154 28.3007 13.9568 28.842C14.2275 29.113 14.5823 29.2483 14.9369 29.2483C15.2914 29.2483 15.646 29.113 15.9167 28.8423L22.5718 22.1872L23.9727 22.1122Z" fill="#2D64AF"/>
</g>
<defs>
<linearGradient id="paint0_linear_3253_130442" x1="41.3304" y1="0.909667" x2="-6.44113" y2="11.2299" gradientUnits="userSpaceOnUse">
<stop offset="0.25727" stop-color="#D2EAFF"/>
<stop offset="0.9898" stop-color="white"/>
</linearGradient>
<clipPath id="clip0_3253_130442">
<rect width="16" height="16" fill="white" transform="translate(13 13.9097)"/>
</clipPath>
</defs>
</svg>
