<svg width="42" height="43" viewBox="0 0 42 43" fill="none" xmlns="http://www.w3.org/2000/svg">
<rect y="0.409668" width="42" height="42" rx="21" fill="url(#paint0_linear_3253_130459)"/>
<g clip-path="url(#clip0_3253_130459)">
<path d="M13.9189 14.5908V28.2286C13.9189 28.897 14.4609 29.4392 15.1295 29.4392H23.8921V13.3804H15.1294C14.4609 13.3804 13.9189 13.9225 13.9189 14.5908ZM20.7581 15.1558H22.8159V17.2137H20.7581V15.1558ZM20.7581 18.1416H22.8159V20.1993H20.7581V18.1416ZM20.7581 21.1677H22.8159V23.2255H20.7581V21.1677ZM18.1556 15.1558H20.2133V17.2137H18.1556V15.1558ZM18.1556 18.1416H20.2133V20.1993H18.1556V18.1416ZM18.1556 21.1677H20.2133V23.2255H18.1556V21.1677ZM18.1556 23.9114H20.2133V25.9692H18.1556V23.9114ZM15.432 15.1558H17.4898V17.2137H15.432V15.1558ZM15.432 18.1416H17.4898V20.1993H15.432V18.1416ZM15.432 21.1677H17.4898V23.2255H15.432V21.1677Z" fill="#2D64AF"/>
<path d="M26.871 13.3804H24.8264V29.4392H26.871C27.5395 29.4392 28.0814 28.897 28.0814 28.2286V14.5908C28.0814 13.9225 27.5395 13.3804 26.871 13.3804Z" fill="#2D64AF"/>
</g>
<defs>
<linearGradient id="paint0_linear_3253_130459" x1="41.3304" y1="0.409667" x2="-6.44113" y2="10.7299" gradientUnits="userSpaceOnUse">
<stop offset="0.25727" stop-color="#D2EAFF"/>
<stop offset="0.9898" stop-color="white"/>
</linearGradient>
<clipPath id="clip0_3253_130459">
<rect width="16.0588" height="16.0588" fill="white" transform="translate(12.9707 13.3804)"/>
</clipPath>
</defs>
</svg>
