<svg width="42" height="43" viewBox="0 0 42 43" fill="none" xmlns="http://www.w3.org/2000/svg">
<rect y="0.909668" width="42" height="42" rx="21" fill="url(#paint0_linear_3253_130475)"/>
<g clip-path="url(#clip0_3253_130475)">
<path d="M27.4363 24.9772H18.1647C16.8046 24.9772 15.6982 26.0834 15.6982 27.4433C15.6982 28.8033 16.8047 29.9097 18.1647 29.9097H27.4363C27.8031 29.9097 28.1006 29.6123 28.1006 29.2454V25.6415C28.1006 25.2746 27.8031 24.9772 27.4363 24.9772ZM25.6373 28.1075H19.0219C18.655 28.1075 18.3576 27.8101 18.3576 27.4433C18.3576 27.0764 18.655 26.779 19.0219 26.779H25.6374C26.0042 26.779 26.3016 27.0764 26.3016 27.4433C26.3016 27.8102 26.0042 28.1075 25.6373 28.1075Z" fill="#2D64AF"/>
<path d="M15.0339 27.436C15.0379 25.7027 16.4757 24.3129 18.209 24.3129H26.0803C26.2026 24.3129 26.3017 24.2137 26.3017 24.0914V14.5739C26.3017 14.2071 26.0043 13.9097 25.6374 13.9097H14.5637C14.1968 13.9097 13.8994 14.2071 13.8994 14.5739V29.2454C13.8994 29.6122 14.1968 29.9097 14.5637 29.9097H15.6789C15.8706 29.9097 15.9717 29.6825 15.8431 29.5403C15.3391 28.9833 15.0321 28.245 15.0339 27.436ZM16.1285 16.8031C16.1285 16.4363 16.4259 16.1388 16.7928 16.1388H23.4083C23.7752 16.1388 24.0726 16.4362 24.0726 16.8031V19.6465C24.0726 20.0134 23.7752 20.3108 23.4083 20.3108H16.7928C16.4259 20.3108 16.1285 20.0134 16.1285 19.6465L16.1285 16.8031ZM16.7928 21.7225H23.4083C23.7751 21.7225 24.0726 22.0199 24.0726 22.3868C24.0726 22.7536 23.7752 23.0511 23.4083 23.0511H16.7928C16.4259 23.0511 16.1285 22.7537 16.1285 22.3868C16.1285 22.0199 16.4259 21.7225 16.7928 21.7225Z" fill="#2D64AF"/>
</g>
<defs>
<linearGradient id="paint0_linear_3253_130475" x1="41.3304" y1="0.909667" x2="-6.44113" y2="11.2299" gradientUnits="userSpaceOnUse">
<stop offset="0.25727" stop-color="#D2EAFF"/>
<stop offset="0.9898" stop-color="white"/>
</linearGradient>
<clipPath id="clip0_3253_130475">
<rect width="16" height="16" fill="white" transform="translate(13 13.9097)"/>
</clipPath>
</defs>
</svg>
