<svg width="25" height="25" viewBox="0 0 25 25" fill="none" xmlns="http://www.w3.org/2000/svg">
<path d="M6.25 10.1511V8.15112C6.25 4.84112 7.25 2.15112 12.25 2.15112C17.25 2.15112 18.25 4.84112 18.25 8.15112V10.1511" stroke="currentColor" stroke-width="1.5" stroke-linecap="round" stroke-linejoin="round"/>
<path d="M12.25 18.6511C13.6307 18.6511 14.75 17.5318 14.75 16.1511C14.75 14.7704 13.6307 13.6511 12.25 13.6511C10.8693 13.6511 9.75 14.7704 9.75 16.1511C9.75 17.5318 10.8693 18.6511 12.25 18.6511Z" stroke="currentColor" stroke-width="1.5" stroke-linecap="round" stroke-linejoin="round"/>
<path d="M17.25 22.1511H7.25C3.25 22.1511 2.25 21.1511 2.25 17.1511V15.1511C2.25 11.1511 3.25 10.1511 7.25 10.1511H17.25C21.25 10.1511 22.25 11.1511 22.25 15.1511V17.1511C22.25 21.1511 21.25 22.1511 17.25 22.1511Z" stroke="currentColor" stroke-width="1.5" stroke-linecap="round" stroke-linejoin="round"/>
</svg>
