<svg width="42" height="50" viewBox="0 0 42 50" fill="none" xmlns="http://www.w3.org/2000/svg">
<g clip-path="url(#clip0_10183_83145)">
<mask id="mask0_10183_83145" style="mask-type:luminance" maskUnits="userSpaceOnUse" x="0" y="0" width="42" height="50">
<path d="M42 0H0V50H42V0Z" fill="white"/>
</mask>
<g mask="url(#mask0_10183_83145)">
<path opacity="0.01" d="M42 0.785889H0V50.7859H42V0.785889Z" fill="white"/>
<path d="M30.169 44.9239C27.655 46.9984 24.8322 48.6758 21.8329 49.8677C21.3477 50.0442 20.8184 50.0442 20.3774 49.8677C17.3781 48.6317 14.5553 46.9542 12.0411 44.9239L20.3332 41.4809C20.8184 41.3044 21.3477 41.3044 21.8329 41.4809L30.169 44.9239ZM21.8329 27.7091C21.3477 27.5325 20.8184 27.5325 20.3332 27.7091L3.66085 34.6392C4.93996 37.1111 6.52779 39.4064 8.42439 41.4809L20.1128 36.6255C20.7302 36.3606 21.4799 36.3606 22.0975 36.6255L33.7858 41.4809C35.6383 39.4064 37.2701 37.1111 38.5492 34.6392L21.8329 27.7091ZM40.9751 21.8827L21.8329 13.9373C21.3477 13.7607 20.8184 13.7607 20.3332 13.9373L1.19088 21.8827C0 22.3958 0.176427 22.3958 0.176427 22.8978C0.441068 25.458 1.01446 28.0181 1.85248 30.4458L20.1128 22.8536C20.7302 22.5889 21.4799 22.5889 22.0975 22.8536L40.3577 30.4458C41.1957 28.0181 41.7691 25.458 42.0337 22.8978C41.8131 22.4123 41.4603 22.0592 40.9751 21.8827ZM41.8573 8.81705C41.8131 8.72877 41.7691 8.68461 41.6809 8.59633L41.5927 8.50805C41.4163 8.33148 41.1957 8.19908 40.9751 8.1108L21.8329 0.165526C21.3477 -0.0551755 20.8184 -0.0551755 20.3332 0.165526L1.19088 8.1108C1.10267 8.15492 1.01446 8.19908 0.926242 8.24322C0.793921 8.33148 0.705709 8.41977 0.573387 8.50805C0.529282 8.5522 0.441068 8.64048 0.396961 8.72877C0.352854 8.81705 0.352854 8.77289 0.352854 8.81705C0.13232 9.12602 0 9.52328 0 9.92055V17.4686L20.1128 9.12602C20.7302 8.86117 21.4799 8.86117 22.0975 9.12602L42.2101 17.4686V9.92055C42.2101 9.52328 42.0779 9.12602 41.8573 8.81705Z" fill="url(#paint0_linear_10183_83145)"/>
</g>
</g>
<defs>
<linearGradient id="paint0_linear_10183_83145" x1="0" y1="25" x2="42.2101" y2="25" gradientUnits="userSpaceOnUse">
<stop stop-color="#4193CF"/>
<stop offset="1" stop-color="#68E2FB"/>
</linearGradient>
<clipPath id="clip0_10183_83145">
<rect width="42" height="50" fill="white"/>
</clipPath>
</defs>
</svg>
