<svg width="84" height="31" viewBox="0 0 84 31" fill="none" xmlns="http://www.w3.org/2000/svg">
<g clip-path="url(#clip0_10183_83109)">
<mask id="mask0_10183_83109" style="mask-type:luminance" maskUnits="userSpaceOnUse" x="0" y="0" width="84" height="31">
<path d="M83.7656 0H0V31H83.7656V0Z" fill="white"/>
</mask>
<g mask="url(#mask0_10183_83109)">
<path opacity="0.01" d="M83.7656 0H0V31H83.7656V0Z" fill="white"/>
<path d="M18.676 27.8528C17.1198 29.139 15.3723 30.179 13.5156 30.9179C13.2153 31.0274 12.8876 31.0274 12.6146 30.9179C10.7579 30.1517 9.01041 29.1116 7.45404 27.8528L12.5872 25.7182C12.8876 25.6087 13.2153 25.6087 13.5156 25.7182L18.676 27.8528ZM13.5156 17.1796C13.2153 17.0702 12.8876 17.0702 12.5872 17.1796L2.26624 21.4763C3.05807 23.0089 4.04102 24.432 5.2151 25.7182L12.4508 22.7078C12.833 22.5436 13.2971 22.5436 13.6794 22.7078L20.915 25.7182C22.0618 24.432 23.072 23.0089 23.8638 21.4763L13.5156 17.1796ZM25.3656 13.5672L13.5156 8.64112C13.2153 8.53166 12.8876 8.53166 12.5872 8.64112L0.737214 13.5672C0 13.8854 0.109217 13.8854 0.109217 14.1966C0.273042 15.7839 0.627997 17.3712 1.14678 18.8764L12.4508 14.1692C12.833 14.0051 13.2971 14.0051 13.6794 14.1692L24.9834 18.8764C25.5021 17.3712 25.8571 15.7839 26.0209 14.1966C25.8843 13.8957 25.6659 13.6767 25.3656 13.5672ZM25.9117 5.46657C25.8843 5.41183 25.8571 5.38446 25.8025 5.32972L25.7479 5.27499C25.6387 5.16552 25.5021 5.08343 25.3656 5.02869L13.5156 0.102626C13.2153 -0.0342088 12.8876 -0.0342088 12.5872 0.102626L0.737214 5.02869C0.682605 5.05605 0.627997 5.08343 0.573388 5.1108C0.491475 5.16552 0.436867 5.22025 0.354954 5.27499C0.327651 5.30237 0.273042 5.3571 0.245738 5.41183C0.218433 5.46657 0.218433 5.43919 0.218433 5.46657C0.0819124 5.65813 0 5.90443 0 6.15074V10.8305L12.4508 5.65813C12.833 5.49393 13.2971 5.49393 13.6794 5.65813L26.1301 10.8305V6.15074C26.1301 5.90443 26.0482 5.65813 25.9117 5.46657Z" fill="url(#paint0_linear_10183_83109)"/>
<path d="M49.7755 14.3604L49.0929 19.9158C49.0929 20.0801 48.9564 20.1896 48.7926 20.1622H47.0178C46.8266 20.1622 46.7448 20.0801 46.772 19.9158L47.4547 14.3604C47.5093 14.0867 47.5365 13.7857 47.5365 13.4847C47.5365 13.2383 47.4819 13.0194 47.3455 12.8005C47.1543 12.5815 46.8266 12.4446 46.3351 12.4446C45.598 12.4721 44.8607 12.5541 44.1509 12.7457L43.2772 19.8885C43.2772 20.0527 43.1406 20.1622 42.9767 20.1348H41.2293C41.0382 20.1348 40.9836 20.0527 40.9836 19.8885L41.6662 14.3878C41.7208 14.0867 41.7481 13.7857 41.7481 13.4847C41.7754 13.2383 41.6935 12.992 41.5843 12.8005C41.4205 12.5815 41.0928 12.4721 40.6013 12.4721C39.8368 12.4995 39.0995 12.5815 38.3624 12.7731L37.4886 19.9158C37.4886 20.0801 37.3521 20.1896 37.1883 20.1622H35.4408C35.277 20.1622 35.1678 20.1075 35.1951 19.9158L36.0961 12.4721C36.178 11.8427 36.5057 11.5963 37.5159 11.3226C38.6627 11.049 39.8369 10.8848 41.0382 10.8848C42.1304 10.8848 42.8403 11.131 43.2772 11.4868C44.4239 11.1037 45.6526 10.9121 46.854 10.8848C47.8915 10.8848 48.6561 10.9942 49.2022 11.3774C49.7482 11.7605 49.912 12.2531 49.912 13.1289C49.8847 13.512 49.8301 13.9226 49.7755 14.3604Z" fill="#202027"/>
<path d="M59.3046 17.316C58.8131 19.177 57.7209 20.3811 55.2363 20.3811C54.4445 20.3811 53.6253 20.2991 52.8608 20.0801L52.9154 21.1474L52.6697 23.1452C52.6697 23.3368 52.5331 23.4736 52.3421 23.501L50.6492 23.802C50.4308 23.8294 50.3216 23.7472 50.3488 23.5283L51.6594 12.8279C51.7414 11.9247 52.0962 11.6784 52.8881 11.4321C54.0622 11.0764 55.2636 10.8848 56.465 10.8848C57.7483 10.8848 58.5401 11.1584 59.0589 11.7058C59.5776 12.2531 59.7688 13.0194 59.7688 13.9772C59.7688 15.0993 59.605 16.2213 59.3046 17.316ZM57.1203 12.9647C56.8746 12.5541 56.4377 12.4721 55.755 12.4721C55.1271 12.4995 54.5264 12.5815 53.9257 12.7457L53.2431 18.5749C53.7619 18.7117 54.308 18.7665 54.8541 18.7938C56.1373 18.7938 56.738 18.3833 57.1203 16.7413C57.3114 15.9476 57.4207 15.0993 57.4207 14.2783C57.3933 13.6215 57.3387 13.2383 57.1203 12.9647Z" fill="#202027"/>
<path d="M69.216 14.2783L68.6973 18.356C68.5607 19.6423 68.0691 19.8885 66.8951 20.1622C66.1032 20.3264 65.2842 20.4085 64.4653 20.4085C63.5095 20.4085 62.4447 20.3537 61.6802 19.9158C61.0795 19.5874 60.6699 19.0128 60.6699 18.0276C60.6699 17.2065 60.8611 16.3308 61.3798 15.7287C61.9805 15.0446 62.8816 14.9077 63.7826 14.7709L66.9227 14.2783L66.9769 13.731C67.0046 13.6762 67.0046 13.5942 67.0046 13.512V13.2931C67.0317 13.0194 66.868 12.7731 66.6225 12.691C66.2127 12.5541 65.7759 12.4995 65.339 12.5268C64.1376 12.5268 62.9362 12.8825 62.3081 13.0194C62.2809 13.0468 62.2535 13.0468 62.2263 13.0468H62.1717C62.0897 13.0468 62.0351 12.992 62.0078 12.8825L61.8986 11.8152C61.8712 11.5963 62.0351 11.5416 62.117 11.4868C63.3731 11.1037 64.6566 10.9121 65.9672 10.8848C67.223 10.8848 67.9872 11.049 68.506 11.3774C69.1342 11.7332 69.3255 12.2805 69.3255 12.9647C69.3255 13.3752 69.2707 13.8131 69.216 14.2783ZM64.547 16.0845C64.001 16.1666 63.5369 16.2213 63.2639 16.6866C63.1 16.9876 62.9908 17.3434 63.0181 17.6991C62.9908 18.0549 63.1546 18.4107 63.4549 18.6022C63.81 18.876 64.3014 18.876 64.7655 18.876C65.3119 18.876 65.8577 18.7938 66.3764 18.6296L66.7314 15.7561L64.547 16.0845Z" fill="#202027"/>
<path d="M75.3592 21.2299C74.6769 22.8446 73.9939 23.775 71.8372 23.775C71.3185 23.8024 70.7722 23.7477 70.2534 23.6655C70.0898 23.6108 69.9802 23.5835 70.035 23.3919L70.1716 22.4067C70.1986 22.2424 70.2264 22.1056 70.499 22.1056C70.5537 22.1056 71.1272 22.1604 71.5093 22.1604C72.4107 22.1604 72.8746 21.914 73.2026 21.1204L73.5571 20.1899H72.4378C72.2741 20.1899 72.1922 20.1079 72.1376 19.9163L70.6355 11.5146C70.6085 11.3504 70.7174 11.1862 70.8817 11.1314C70.9087 11.1314 70.9358 11.1314 70.9635 11.1314H72.6833C72.8475 11.1041 72.9842 11.2409 73.0113 11.4051L73.9668 18.7121H74.4037L76.9701 11.4325C77.0249 11.2682 77.1886 11.1314 77.3799 11.1314H79.1545C79.2641 11.1041 79.4006 11.1862 79.4006 11.3231C79.4006 11.3504 79.4006 11.3504 79.4006 11.3777C79.4006 11.4325 79.4006 11.4599 79.3729 11.5146L75.3592 21.2299Z" fill="#202027"/>
</g>
</g>
<defs>
<linearGradient id="paint0_linear_10183_83109" x1="0" y1="15.5" x2="26.1301" y2="15.5" gradientUnits="userSpaceOnUse">
<stop stop-color="#4193CF"/>
<stop offset="1" stop-color="#68E2FB"/>
</linearGradient>
<clipPath id="clip0_10183_83109">
<rect width="84" height="31" fill="white"/>
</clipPath>
</defs>
</svg>
