<svg width="78" height="73" viewBox="0 0 78 73" fill="none" xmlns="http://www.w3.org/2000/svg">
<mask id="path-1-inside-1_3358_3045" fill="white">
<path d="M59.0835 10.8112C60.1205 9.57979 59.9691 7.73023 58.6589 6.79473C52.7756 2.59389 45.7564 0.221417 38.4865 0.0147408C30.2422 -0.219636 22.1615 2.34507 15.5614 7.29089C8.96121 12.2367 4.23066 19.2721 2.14062 27.2505C0.0505877 35.2289 0.724281 43.68 4.05192 51.2265C7.37956 58.773 13.165 64.9701 20.4653 68.8078C27.7657 72.6456 36.1506 73.8977 44.2536 72.3601C52.3566 70.8226 59.7001 66.5861 65.0872 60.3409C69.8377 54.8339 72.82 48.0513 73.6862 40.8742C73.8791 39.2759 72.6156 37.9167 71.0071 37.8519C69.3985 37.7871 68.0562 39.0422 67.839 40.6374C67.0414 46.4969 64.5625 52.0238 60.6728 56.533C56.1461 61.7806 49.9756 65.3405 43.1668 66.6325C36.358 67.9244 29.3123 66.8723 23.178 63.6475C17.0437 60.4228 12.1824 55.2155 9.38623 48.8744C6.59009 42.5332 6.024 35.4319 7.78021 28.7279C9.53642 22.0238 13.5114 16.1121 19.0574 11.9563C24.6033 7.80039 31.3933 5.64533 38.3208 5.84227C44.2734 6.01149 50.0259 7.90873 54.8902 11.2717C56.2145 12.1872 58.0464 12.0425 59.0835 10.8112Z"/>
</mask>
<path d="M59.0835 10.8112C60.1205 9.57979 59.9691 7.73023 58.6589 6.79473C52.7756 2.59389 45.7564 0.221417 38.4865 0.0147408C30.2422 -0.219636 22.1615 2.34507 15.5614 7.29089C8.96121 12.2367 4.23066 19.2721 2.14062 27.2505C0.0505877 35.2289 0.724281 43.68 4.05192 51.2265C7.37956 58.773 13.165 64.9701 20.4653 68.8078C27.7657 72.6456 36.1506 73.8977 44.2536 72.3601C52.3566 70.8226 59.7001 66.5861 65.0872 60.3409C69.8377 54.8339 72.82 48.0513 73.6862 40.8742C73.8791 39.2759 72.6156 37.9167 71.0071 37.8519C69.3985 37.7871 68.0562 39.0422 67.839 40.6374C67.0414 46.4969 64.5625 52.0238 60.6728 56.533C56.1461 61.7806 49.9756 65.3405 43.1668 66.6325C36.358 67.9244 29.3123 66.8723 23.178 63.6475C17.0437 60.4228 12.1824 55.2155 9.38623 48.8744C6.59009 42.5332 6.024 35.4319 7.78021 28.7279C9.53642 22.0238 13.5114 16.1121 19.0574 11.9563C24.6033 7.80039 31.3933 5.64533 38.3208 5.84227C44.2734 6.01149 50.0259 7.90873 54.8902 11.2717C56.2145 12.1872 58.0464 12.0425 59.0835 10.8112Z" fill="url(#paint0_linear_3358_3045)" stroke="url(#paint1_linear_3358_3045)" stroke-width="10" mask="url(#path-1-inside-1_3358_3045)"/>
<path d="M73.9491 11.3931L38.2667 47.2601L22.0474 30.9569" stroke="url(#paint2_linear_3358_3045)" stroke-width="7" stroke-linecap="round" stroke-linejoin="round"/>
<defs>
<linearGradient id="paint0_linear_3358_3045" x1="0.949219" y1="0" x2="83.287" y2="13.5223" gradientUnits="userSpaceOnUse">
<stop stop-color="#3C85C4"/>
<stop offset="1" stop-color="#1269B5"/>
</linearGradient>
<linearGradient id="paint1_linear_3358_3045" x1="0.949219" y1="0" x2="83.287" y2="13.5223" gradientUnits="userSpaceOnUse">
<stop stop-color="#3C85C4"/>
<stop offset="1" stop-color="#1269B5"/>
</linearGradient>
<linearGradient id="paint2_linear_3358_3045" x1="22.0474" y1="11.3931" x2="78.9531" y2="24.9168" gradientUnits="userSpaceOnUse">
<stop stop-color="#3C85C4"/>
<stop offset="1" stop-color="#1269B5"/>
</linearGradient>
</defs>
</svg>
